<?xml version="1.0" encoding="utf-8"?>
<!-- Generator: Adobe Illustrator 16.0.0, SVG Export Plug-In . SVG Version: 6.00 Build 0)  -->
<!DOCTYPE svg PUBLIC "-//W3C//DTD SVG 1.1//EN" "http://www.w3.org/Graphics/SVG/1.1/DTD/svg11.dtd">
<svg version="1.1" id="Layer_1" xmlns="http://www.w3.org/2000/svg" xmlns:xlink="http://www.w3.org/1999/xlink" x="0px" y="0px"
	 width="841.89px" height="595.28px" viewBox="0 0 841.89 595.28" enable-background="new 0 0 841.89 595.28" xml:space="preserve">
<g>
	<defs>
		<rect id="SVGID_1_" x="-102.141" y="1.545" width="1024.333" height="493.417"/>
	</defs>
	<clipPath id="SVGID_2_">
		<use xlink:href="#SVGID_1_"  overflow="visible"/>
	</clipPath>
	<g clip-path="url(#SVGID_2_)">
		<rect x="-102.141" y="1.545" fill="#FFFFFF" width="1024.417" height="493.5"/>
	</g>
	<g clip-path="url(#SVGID_2_)">
		<rect x="31.026" y="38.545" fill="#FFFFFF" width="793.833" height="402.167"/>
	</g>
	<g clip-path="url(#SVGID_2_)">
		<polyline fill="none" stroke="#FFFFFF" stroke-width="0.5" stroke-linejoin="round" stroke-miterlimit="10" points="
			31.026,440.713 31.026,38.545 824.859,38.545 824.859,440.713 31.026,440.713 		"/>
	</g>
	
		<line clip-path="url(#SVGID_2_)" fill="none" stroke="#000000" stroke-width="0.5" stroke-linejoin="round" stroke-miterlimit="10" x1="31.026" y1="440.713" x2="824.859" y2="440.713"/>
	
		<line clip-path="url(#SVGID_2_)" fill="none" stroke="#000000" stroke-width="0.5" stroke-linejoin="round" stroke-miterlimit="10" x1="31.026" y1="440.713" x2="31.026" y2="38.545"/>
	
		<line clip-path="url(#SVGID_2_)" fill="none" stroke="#000000" stroke-width="0.5" stroke-linejoin="round" stroke-miterlimit="10" x1="31.026" y1="440.713" x2="31.026" y2="432.713"/>
	<g clip-path="url(#SVGID_2_)">
		<text transform="matrix(1 0 0 1 24.1094 452.7949)" font-family="'Helvetica'" font-size="10">0.4</text>
	</g>
	
		<line clip-path="url(#SVGID_2_)" fill="none" stroke="#000000" stroke-width="0.5" stroke-linejoin="round" stroke-miterlimit="10" x1="110.359" y1="440.713" x2="110.359" y2="432.713"/>
	<g clip-path="url(#SVGID_2_)">
		<text transform="matrix(1 0 0 1 103.4424 452.7949)" font-family="'Helvetica'" font-size="10">0.6</text>
	</g>
	
		<line clip-path="url(#SVGID_2_)" fill="none" stroke="#000000" stroke-width="0.5" stroke-linejoin="round" stroke-miterlimit="10" x1="189.776" y1="440.713" x2="189.776" y2="432.713"/>
	<g clip-path="url(#SVGID_2_)">
		<text transform="matrix(1 0 0 1 182.8594 452.7949)" font-family="'Helvetica'" font-size="10">0.8</text>
	</g>
	
		<line clip-path="url(#SVGID_2_)" fill="none" stroke="#000000" stroke-width="0.5" stroke-linejoin="round" stroke-miterlimit="10" x1="269.109" y1="440.713" x2="269.109" y2="432.713"/>
	<g clip-path="url(#SVGID_2_)">
		<text transform="matrix(1 0 0 1 266.3594 452.7949)" font-family="'Helvetica'" font-size="10">1</text>
	</g>
	
		<line clip-path="url(#SVGID_2_)" fill="none" stroke="#000000" stroke-width="0.5" stroke-linejoin="round" stroke-miterlimit="10" x1="348.526" y1="440.713" x2="348.526" y2="432.713"/>
	<g clip-path="url(#SVGID_2_)">
		<text transform="matrix(1 0 0 1 341.6094 452.7949)" font-family="'Helvetica'" font-size="10">1.2</text>
	</g>
	
		<line clip-path="url(#SVGID_2_)" fill="none" stroke="#000000" stroke-width="0.5" stroke-linejoin="round" stroke-miterlimit="10" x1="427.942" y1="440.713" x2="427.942" y2="432.713"/>
	<g clip-path="url(#SVGID_2_)">
		<text transform="matrix(1 0 0 1 421.0264 452.7949)" font-family="'Helvetica'" font-size="10">1.4</text>
	</g>
	
		<line clip-path="url(#SVGID_2_)" fill="none" stroke="#000000" stroke-width="0.5" stroke-linejoin="round" stroke-miterlimit="10" x1="507.276" y1="440.713" x2="507.276" y2="432.713"/>
	<g clip-path="url(#SVGID_2_)">
		<text transform="matrix(1 0 0 1 500.3594 452.7949)" font-family="'Helvetica'" font-size="10">1.6</text>
	</g>
	
		<line clip-path="url(#SVGID_2_)" fill="none" stroke="#000000" stroke-width="0.5" stroke-linejoin="round" stroke-miterlimit="10" x1="586.692" y1="440.713" x2="586.692" y2="432.713"/>
	<g clip-path="url(#SVGID_2_)">
		<text transform="matrix(1 0 0 1 579.7764 452.7949)" font-family="'Helvetica'" font-size="10">1.8</text>
	</g>
	
		<line clip-path="url(#SVGID_2_)" fill="none" stroke="#000000" stroke-width="0.5" stroke-linejoin="round" stroke-miterlimit="10" x1="666.026" y1="440.713" x2="666.026" y2="432.713"/>
	<g clip-path="url(#SVGID_2_)">
		<text transform="matrix(1 0 0 1 663.2764 452.7949)" font-family="'Helvetica'" font-size="10">2</text>
	</g>
	
		<line clip-path="url(#SVGID_2_)" fill="none" stroke="#000000" stroke-width="0.5" stroke-linejoin="round" stroke-miterlimit="10" x1="745.442" y1="440.713" x2="745.442" y2="432.713"/>
	<g clip-path="url(#SVGID_2_)">
		<text transform="matrix(1 0 0 1 738.5264 452.7949)" font-family="'Helvetica'" font-size="10">2.2</text>
	</g>
	
		<line clip-path="url(#SVGID_2_)" fill="none" stroke="#000000" stroke-width="0.5" stroke-linejoin="round" stroke-miterlimit="10" x1="824.859" y1="440.713" x2="824.859" y2="432.713"/>
	<g clip-path="url(#SVGID_2_)">
		<text transform="matrix(1 0 0 1 817.9424 452.7949)" font-family="'Helvetica'" font-size="10">2.4</text>
	</g>
	<g clip-path="url(#SVGID_2_)">
		<text transform="matrix(1 0 0 1 800.1094 469.6279)" font-family="'Helvetica'" font-size="10">x 10</text>
	</g>
	<g clip-path="url(#SVGID_2_)">
		<text transform="matrix(1 0 0 1 818.9424 463.4619)" font-family="'Helvetica'" font-size="6.6667">-8</text>
	</g>
	
		<line clip-path="url(#SVGID_2_)" fill="none" stroke="#000000" stroke-width="0.5" stroke-linejoin="round" stroke-miterlimit="10" x1="31.026" y1="440.713" x2="38.942" y2="440.713"/>
	<g clip-path="url(#SVGID_2_)">
		<text transform="matrix(1 0 0 1 22.6094 444.3779)" font-family="'Helvetica'" font-size="10">0</text>
	</g>
	
		<line clip-path="url(#SVGID_2_)" fill="none" stroke="#000000" stroke-width="0.5" stroke-linejoin="round" stroke-miterlimit="10" x1="31.026" y1="400.463" x2="38.942" y2="400.463"/>
	<g clip-path="url(#SVGID_2_)">
		<text transform="matrix(1 0 0 1 14.2764 404.1279)" font-family="'Helvetica'" font-size="10">0.1</text>
	</g>
	
		<line clip-path="url(#SVGID_2_)" fill="none" stroke="#000000" stroke-width="0.5" stroke-linejoin="round" stroke-miterlimit="10" x1="31.026" y1="360.213" x2="38.942" y2="360.213"/>
	<g clip-path="url(#SVGID_2_)">
		<text transform="matrix(1 0 0 1 14.2764 363.8779)" font-family="'Helvetica'" font-size="10">0.2</text>
	</g>
	
		<line clip-path="url(#SVGID_2_)" fill="none" stroke="#000000" stroke-width="0.5" stroke-linejoin="round" stroke-miterlimit="10" x1="31.026" y1="320.045" x2="38.942" y2="320.045"/>
	<g clip-path="url(#SVGID_2_)">
		<text transform="matrix(1 0 0 1 14.2764 323.7119)" font-family="'Helvetica'" font-size="10">0.3</text>
	</g>
	
		<line clip-path="url(#SVGID_2_)" fill="none" stroke="#000000" stroke-width="0.5" stroke-linejoin="round" stroke-miterlimit="10" x1="31.026" y1="279.795" x2="38.942" y2="279.795"/>
	<g clip-path="url(#SVGID_2_)">
		<text transform="matrix(1 0 0 1 14.2764 283.4619)" font-family="'Helvetica'" font-size="10">0.4</text>
	</g>
	
		<line clip-path="url(#SVGID_2_)" fill="none" stroke="#000000" stroke-width="0.5" stroke-linejoin="round" stroke-miterlimit="10" x1="31.026" y1="239.628" x2="38.942" y2="239.628"/>
	<g clip-path="url(#SVGID_2_)">
		<text transform="matrix(1 0 0 1 14.2764 243.2949)" font-family="'Helvetica'" font-size="10">0.5</text>
	</g>
	
		<line clip-path="url(#SVGID_2_)" fill="none" stroke="#000000" stroke-width="0.5" stroke-linejoin="round" stroke-miterlimit="10" x1="31.026" y1="199.378" x2="38.942" y2="199.378"/>
	<g clip-path="url(#SVGID_2_)">
		<text transform="matrix(1 0 0 1 14.2764 203.0449)" font-family="'Helvetica'" font-size="10">0.6</text>
	</g>
	
		<line clip-path="url(#SVGID_2_)" fill="none" stroke="#000000" stroke-width="0.5" stroke-linejoin="round" stroke-miterlimit="10" x1="31.026" y1="159.128" x2="38.942" y2="159.128"/>
	<g clip-path="url(#SVGID_2_)">
		<text transform="matrix(1 0 0 1 14.2764 162.7949)" font-family="'Helvetica'" font-size="10">0.7</text>
	</g>
	
		<line clip-path="url(#SVGID_2_)" fill="none" stroke="#000000" stroke-width="0.5" stroke-linejoin="round" stroke-miterlimit="10" x1="31.026" y1="118.962" x2="38.942" y2="118.962"/>
	<g clip-path="url(#SVGID_2_)">
		<text transform="matrix(1 0 0 1 14.2764 122.6279)" font-family="'Helvetica'" font-size="10">0.8</text>
	</g>
	
		<line clip-path="url(#SVGID_2_)" fill="none" stroke="#000000" stroke-width="0.5" stroke-linejoin="round" stroke-miterlimit="10" x1="31.026" y1="78.712" x2="38.942" y2="78.712"/>
	<g clip-path="url(#SVGID_2_)">
		<text transform="matrix(1 0 0 1 14.2764 82.3779)" font-family="'Helvetica'" font-size="10">0.9</text>
	</g>
	
		<line clip-path="url(#SVGID_2_)" fill="none" stroke="#000000" stroke-width="0.5" stroke-linejoin="round" stroke-miterlimit="10" x1="31.026" y1="38.545" x2="38.942" y2="38.545"/>
	<g clip-path="url(#SVGID_2_)">
		<text transform="matrix(1 0 0 1 22.6094 42.2119)" font-family="'Helvetica'" font-size="10">1</text>
	</g>
	<g clip-path="url(#SVGID_2_)">
		<text transform="matrix(1 0 0 1 39.6094 33.9619)" font-family="'Helvetica'" font-size="10">1</text>
	</g>
	<g clip-path="url(#SVGID_2_)">
		<text transform="matrix(1 0 0 1 50.0264 33.9619)" font-family="'Helvetica'" font-size="10">2</text>
	</g>
	<g clip-path="url(#SVGID_2_)">
		<text transform="matrix(1 0 0 1 54.1094 33.9619)" font-family="'Helvetica'" font-size="10">3</text>
	</g>
	<g clip-path="url(#SVGID_2_)">
		<text transform="matrix(1 0 0 1 66.7764 33.9619)" font-family="'Helvetica'" font-size="10">4</text>
	</g>
	<g clip-path="url(#SVGID_2_)">
		<text transform="matrix(1 0 0 1 70.6094 33.9619)" font-family="'Helvetica'" font-size="10">5</text>
	</g>
	<g clip-path="url(#SVGID_2_)">
		<text transform="matrix(1 0 0 1 64.1094 33.9619)" font-family="'Helvetica'" font-size="10">6</text>
	</g>
	<g clip-path="url(#SVGID_2_)">
		<text transform="matrix(1 0 0 1 60.9424 33.9619)" font-family="'Helvetica'" font-size="10">7</text>
	</g>
	<g clip-path="url(#SVGID_2_)">
		<text transform="matrix(1 0 0 1 58.9424 33.9619)" font-family="'Helvetica'" font-size="10">8</text>
	</g>
	<g clip-path="url(#SVGID_2_)">
		<text transform="matrix(1 0 0 1 60.7764 33.9619)" font-family="'Helvetica'" font-size="10">9</text>
	</g>
	<g clip-path="url(#SVGID_2_)">
		<defs>
			<rect id="SVGID_3_" x="31.026" y="38.545" width="793.916" height="402.25"/>
		</defs>
		<clipPath id="SVGID_4_">
			<use xlink:href="#SVGID_3_"  overflow="visible"/>
		</clipPath>
		<g clip-path="url(#SVGID_4_)">
			<polyline fill="none" stroke="#ED1C24" stroke-width="0.5" stroke-linejoin="round" stroke-miterlimit="10" points="
				39.609,38.545 50.026,38.545 54.109,38.545 66.776,38.545 70.609,38.545 			"/>
		</g>
	</g>
	<g clip-path="url(#SVGID_2_)">
		<text transform="matrix(1 0 0 1 751.9424 401.2119)" font-family="'Helvetica'" font-size="10">1</text>
	</g>
	<g clip-path="url(#SVGID_2_)">
		<text transform="matrix(1 0 0 1 78.6924 356.8779)" font-family="'Helvetica'" font-size="10">2</text>
	</g>
	<g clip-path="url(#SVGID_2_)">
		<text transform="matrix(1 0 0 1 79.8594 312.4619)" font-family="'Helvetica'" font-size="10">3</text>
	</g>
	<g clip-path="url(#SVGID_2_)">
		<text transform="matrix(1 0 0 1 79.8594 313.7119)" font-family="'Helvetica'" font-size="10">4</text>
	</g>
	<g clip-path="url(#SVGID_2_)">
		<text transform="matrix(1 0 0 1 89.7764 157.3779)" font-family="'Helvetica'" font-size="10">5</text>
	</g>
	<g clip-path="url(#SVGID_2_)">
		<text transform="matrix(1 0 0 1 80.8594 348.3779)" font-family="'Helvetica'" font-size="10">6</text>
	</g>
	<g clip-path="url(#SVGID_2_)">
		<text transform="matrix(1 0 0 1 297.6094 344.4619)" font-family="'Helvetica'" font-size="10">7</text>
	</g>
	<g clip-path="url(#SVGID_2_)">
		<text transform="matrix(1 0 0 1 78.7764 366.6279)" font-family="'Helvetica'" font-size="10">8</text>
	</g>
	<g clip-path="url(#SVGID_2_)">
		<text transform="matrix(1 0 0 1 81.2764 392.4619)" font-family="'Helvetica'" font-size="10">9</text>
	</g>
	<g clip-path="url(#SVGID_2_)">
		<defs>
			<rect id="SVGID_5_" x="31.026" y="38.545" width="793.916" height="402.25"/>
		</defs>
		<clipPath id="SVGID_6_">
			<use xlink:href="#SVGID_5_"  overflow="visible"/>
		</clipPath>
		<g clip-path="url(#SVGID_6_)">
			<polyline fill="none" stroke="#D7DF23" stroke-width="0.5" stroke-linejoin="round" stroke-miterlimit="10" points="
				751.942,405.795 78.692,361.463 79.859,316.963 79.859,318.213 89.776,161.878 			"/>
		</g>
	</g>
	<g clip-path="url(#SVGID_2_)">
		<text transform="matrix(1 0 0 1 262.2764 335.5449)" font-family="'Helvetica'" font-size="10">1</text>
	</g>
	<g clip-path="url(#SVGID_2_)">
		<text transform="matrix(1 0 0 1 167.3594 374.9619)" font-family="'Helvetica'" font-size="10">2</text>
	</g>
	<g clip-path="url(#SVGID_2_)">
		<text transform="matrix(1 0 0 1 159.1924 362.5449)" font-family="'Helvetica'" font-size="10">3</text>
	</g>
	<g clip-path="url(#SVGID_2_)">
		<text transform="matrix(1 0 0 1 158.0264 340.9619)" font-family="'Helvetica'" font-size="10">4</text>
	</g>
	<g clip-path="url(#SVGID_2_)">
		<text transform="matrix(1 0 0 1 113.8594 99.0449)" font-family="'Helvetica'" font-size="10">5</text>
	</g>
	<g clip-path="url(#SVGID_2_)">
		<text transform="matrix(1 0 0 1 149.9424 359.3779)" font-family="'Helvetica'" font-size="10">6</text>
	</g>
	<g clip-path="url(#SVGID_2_)">
		<text transform="matrix(1 0 0 1 143.8594 359.2949)" font-family="'Helvetica'" font-size="10">7</text>
	</g>
	<g clip-path="url(#SVGID_2_)">
		<text transform="matrix(1 0 0 1 168.4424 384.8779)" font-family="'Helvetica'" font-size="10">8</text>
	</g>
	<g clip-path="url(#SVGID_2_)">
		<text transform="matrix(1 0 0 1 159.8594 382.6279)" font-family="'Helvetica'" font-size="10">9</text>
	</g>
	<g clip-path="url(#SVGID_2_)">
		<defs>
			<rect id="SVGID_7_" x="31.026" y="38.545" width="793.916" height="402.25"/>
		</defs>
		<clipPath id="SVGID_8_">
			<use xlink:href="#SVGID_7_"  overflow="visible"/>
		</clipPath>
		<g clip-path="url(#SVGID_8_)">
			<polyline fill="none" stroke="#00A88E" stroke-width="0.5" stroke-linejoin="round" stroke-miterlimit="10" points="
				262.276,340.045 167.359,379.463 159.192,367.129 158.026,345.463 113.859,103.628 			"/>
		</g>
	</g>
	<g clip-path="url(#SVGID_2_)">
		<text transform="matrix(1 0 0 1 89.2764 344.0449)" font-family="'Helvetica'" font-size="10">1</text>
	</g>
	<g clip-path="url(#SVGID_2_)">
		<text transform="matrix(1 0 0 1 81.6924 387.0449)" font-family="'Helvetica'" font-size="10">2</text>
	</g>
	<g clip-path="url(#SVGID_2_)">
		<text transform="matrix(1 0 0 1 79.4424 193.8779)" font-family="'Helvetica'" font-size="10">3</text>
	</g>
	<g clip-path="url(#SVGID_2_)">
		<text transform="matrix(1 0 0 1 79.3594 99.5449)" font-family="'Helvetica'" font-size="10">4</text>
	</g>
	<g clip-path="url(#SVGID_2_)">
		<text transform="matrix(1 0 0 1 101.0264 33.9619)" font-family="'Helvetica'" font-size="10">5</text>
	</g>
	<g clip-path="url(#SVGID_2_)">
		<text transform="matrix(1 0 0 1 79.1924 142.5449)" font-family="'Helvetica'" font-size="10">6</text>
	</g>
	<g clip-path="url(#SVGID_2_)">
		<text transform="matrix(1 0 0 1 84.7764 210.7119)" font-family="'Helvetica'" font-size="10">7</text>
	</g>
	<g clip-path="url(#SVGID_2_)">
		<text transform="matrix(1 0 0 1 81.1094 283.2949)" font-family="'Helvetica'" font-size="10">8</text>
	</g>
	<g clip-path="url(#SVGID_2_)">
		<text transform="matrix(1 0 0 1 79.4424 273.1279)" font-family="'Helvetica'" font-size="10">9</text>
	</g>
	<g clip-path="url(#SVGID_2_)">
		<defs>
			<rect id="SVGID_9_" x="31.026" y="38.545" width="793.916" height="402.25"/>
		</defs>
		<clipPath id="SVGID_10_">
			<use xlink:href="#SVGID_9_"  overflow="visible"/>
		</clipPath>
		<g clip-path="url(#SVGID_10_)">
			<polyline fill="none" stroke="#0066B3" stroke-width="0.5" stroke-linejoin="round" stroke-miterlimit="10" points="
				89.276,348.629 81.692,391.545 79.442,198.378 79.359,104.045 101.026,38.545 			"/>
		</g>
	</g>
	<g clip-path="url(#SVGID_2_)">
		<text transform="matrix(1 0 0 1 146.9424 368.2949)" font-family="'Helvetica'" font-size="10">1</text>
	</g>
	<g clip-path="url(#SVGID_2_)">
		<text transform="matrix(1 0 0 1 122.0264 384.5449)" font-family="'Helvetica'" font-size="10">2</text>
	</g>
	<g clip-path="url(#SVGID_2_)">
		<text transform="matrix(1 0 0 1 79.7764 290.9619)" font-family="'Helvetica'" font-size="10">3</text>
	</g>
	<g clip-path="url(#SVGID_2_)">
		<text transform="matrix(1 0 0 1 94.1924 117.5449)" font-family="'Helvetica'" font-size="10">4</text>
	</g>
	<g clip-path="url(#SVGID_2_)">
		<text transform="matrix(1 0 0 1 89.7764 33.9619)" font-family="'Helvetica'" font-size="10">5</text>
	</g>
	<g clip-path="url(#SVGID_2_)">
		<text transform="matrix(1 0 0 1 107.6094 328.5449)" font-family="'Helvetica'" font-size="10">6</text>
	</g>
	<g clip-path="url(#SVGID_2_)">
		<text transform="matrix(1 0 0 1 79.6924 294.1279)" font-family="'Helvetica'" font-size="10">7</text>
	</g>
	<g clip-path="url(#SVGID_2_)">
		<text transform="matrix(1 0 0 1 118.3594 363.2949)" font-family="'Helvetica'" font-size="10">8</text>
	</g>
	<g clip-path="url(#SVGID_2_)">
		<text transform="matrix(1 0 0 1 107.9424 349.2119)" font-family="'Helvetica'" font-size="10">9</text>
	</g>
	<g clip-path="url(#SVGID_2_)">
		<defs>
			<rect id="SVGID_11_" x="31.026" y="38.545" width="793.916" height="402.25"/>
		</defs>
		<clipPath id="SVGID_12_">
			<use xlink:href="#SVGID_11_"  overflow="visible"/>
		</clipPath>
		<g clip-path="url(#SVGID_12_)">
			<polyline fill="none" stroke="#C6168D" stroke-width="0.5" stroke-linejoin="round" stroke-miterlimit="10" points="
				146.942,372.879 122.026,389.129 79.776,295.545 94.192,122.128 89.776,38.545 			"/>
		</g>
	</g>
	<g clip-path="url(#SVGID_2_)">
		<text transform="matrix(1 0 0 1 39.6094 33.9619)" font-family="'Helvetica'" font-size="10">1</text>
	</g>
	<g clip-path="url(#SVGID_2_)">
		<text transform="matrix(1 0 0 1 50.0264 33.9619)" font-family="'Helvetica'" font-size="10">2</text>
	</g>
	<g clip-path="url(#SVGID_2_)">
		<text transform="matrix(1 0 0 1 54.1094 33.9619)" font-family="'Helvetica'" font-size="10">3</text>
	</g>
	<g clip-path="url(#SVGID_2_)">
		<text transform="matrix(1 0 0 1 66.7764 33.9619)" font-family="'Helvetica'" font-size="10">4</text>
	</g>
	<g clip-path="url(#SVGID_2_)">
		<text transform="matrix(1 0 0 1 70.6094 33.9619)" font-family="'Helvetica'" font-size="10">5</text>
	</g>
	<g clip-path="url(#SVGID_2_)">
		<text transform="matrix(1 0 0 1 64.1094 33.9619)" font-family="'Helvetica'" font-size="10">6</text>
	</g>
	<g clip-path="url(#SVGID_2_)">
		<text transform="matrix(1 0 0 1 60.9424 33.9619)" font-family="'Helvetica'" font-size="10">7</text>
	</g>
	<g clip-path="url(#SVGID_2_)">
		<text transform="matrix(1 0 0 1 58.9424 33.9619)" font-family="'Helvetica'" font-size="10">8</text>
	</g>
	<g clip-path="url(#SVGID_2_)">
		<text transform="matrix(1 0 0 1 60.7764 33.9619)" font-family="'Helvetica'" font-size="10">9</text>
	</g>
	<g clip-path="url(#SVGID_2_)">
		<defs>
			<rect id="SVGID_13_" x="31.026" y="38.545" width="793.916" height="402.25"/>
		</defs>
		<clipPath id="SVGID_14_">
			<use xlink:href="#SVGID_13_"  overflow="visible"/>
		</clipPath>
		<g clip-path="url(#SVGID_14_)">
			<polyline fill="none" stroke="#ED1C24" stroke-width="0.5" stroke-linejoin="round" stroke-miterlimit="10" points="
				64.109,38.545 60.942,38.545 54.109,38.545 58.942,38.545 60.776,38.545 			"/>
		</g>
	</g>
	<g clip-path="url(#SVGID_2_)">
		<text transform="matrix(1 0 0 1 751.9424 401.2119)" font-family="'Helvetica'" font-size="10">1</text>
	</g>
	<g clip-path="url(#SVGID_2_)">
		<text transform="matrix(1 0 0 1 78.6924 356.8779)" font-family="'Helvetica'" font-size="10">2</text>
	</g>
	<g clip-path="url(#SVGID_2_)">
		<text transform="matrix(1 0 0 1 79.8594 312.4619)" font-family="'Helvetica'" font-size="10">3</text>
	</g>
	<g clip-path="url(#SVGID_2_)">
		<text transform="matrix(1 0 0 1 79.8594 313.7119)" font-family="'Helvetica'" font-size="10">4</text>
	</g>
	<g clip-path="url(#SVGID_2_)">
		<text transform="matrix(1 0 0 1 89.7764 157.3779)" font-family="'Helvetica'" font-size="10">5</text>
	</g>
	<g clip-path="url(#SVGID_2_)">
		<text transform="matrix(1 0 0 1 80.8594 348.3779)" font-family="'Helvetica'" font-size="10">6</text>
	</g>
	<g clip-path="url(#SVGID_2_)">
		<text transform="matrix(1 0 0 1 297.6094 344.4619)" font-family="'Helvetica'" font-size="10">7</text>
	</g>
	<g clip-path="url(#SVGID_2_)">
		<text transform="matrix(1 0 0 1 78.7764 366.6279)" font-family="'Helvetica'" font-size="10">8</text>
	</g>
	<g clip-path="url(#SVGID_2_)">
		<text transform="matrix(1 0 0 1 81.2764 392.4619)" font-family="'Helvetica'" font-size="10">9</text>
	</g>
	<g clip-path="url(#SVGID_2_)">
		<defs>
			<rect id="SVGID_15_" x="31.026" y="38.545" width="793.916" height="402.25"/>
		</defs>
		<clipPath id="SVGID_16_">
			<use xlink:href="#SVGID_15_"  overflow="visible"/>
		</clipPath>
		<g clip-path="url(#SVGID_16_)">
			<polyline fill="none" stroke="#D7DF23" stroke-width="0.5" stroke-linejoin="round" stroke-miterlimit="10" points="
				80.859,352.879 297.609,348.963 79.859,316.963 78.776,371.213 81.276,397.045 			"/>
		</g>
	</g>
	<g clip-path="url(#SVGID_2_)">
		<text transform="matrix(1 0 0 1 262.2764 335.5449)" font-family="'Helvetica'" font-size="10">1</text>
	</g>
	<g clip-path="url(#SVGID_2_)">
		<text transform="matrix(1 0 0 1 167.3594 374.9619)" font-family="'Helvetica'" font-size="10">2</text>
	</g>
	<g clip-path="url(#SVGID_2_)">
		<text transform="matrix(1 0 0 1 159.1924 362.5449)" font-family="'Helvetica'" font-size="10">3</text>
	</g>
	<g clip-path="url(#SVGID_2_)">
		<text transform="matrix(1 0 0 1 158.0264 340.9619)" font-family="'Helvetica'" font-size="10">4</text>
	</g>
	<g clip-path="url(#SVGID_2_)">
		<text transform="matrix(1 0 0 1 113.8594 99.0449)" font-family="'Helvetica'" font-size="10">5</text>
	</g>
	<g clip-path="url(#SVGID_2_)">
		<text transform="matrix(1 0 0 1 149.9424 359.3779)" font-family="'Helvetica'" font-size="10">6</text>
	</g>
	<g clip-path="url(#SVGID_2_)">
		<text transform="matrix(1 0 0 1 143.8594 359.2949)" font-family="'Helvetica'" font-size="10">7</text>
	</g>
	<g clip-path="url(#SVGID_2_)">
		<text transform="matrix(1 0 0 1 168.4424 384.8779)" font-family="'Helvetica'" font-size="10">8</text>
	</g>
	<g clip-path="url(#SVGID_2_)">
		<text transform="matrix(1 0 0 1 159.8594 382.6279)" font-family="'Helvetica'" font-size="10">9</text>
	</g>
	<g clip-path="url(#SVGID_2_)">
		<defs>
			<rect id="SVGID_17_" x="31.026" y="38.545" width="793.916" height="402.25"/>
		</defs>
		<clipPath id="SVGID_18_">
			<use xlink:href="#SVGID_17_"  overflow="visible"/>
		</clipPath>
		<g clip-path="url(#SVGID_18_)">
			<polyline fill="none" stroke="#00A88E" stroke-width="0.5" stroke-linejoin="round" stroke-miterlimit="10" points="
				149.942,363.879 143.859,363.879 159.192,367.129 168.442,389.379 159.859,387.129 			"/>
		</g>
	</g>
	<g clip-path="url(#SVGID_2_)">
		<text transform="matrix(1 0 0 1 89.2764 344.0449)" font-family="'Helvetica'" font-size="10">1</text>
	</g>
	<g clip-path="url(#SVGID_2_)">
		<text transform="matrix(1 0 0 1 81.6924 387.0449)" font-family="'Helvetica'" font-size="10">2</text>
	</g>
	<g clip-path="url(#SVGID_2_)">
		<text transform="matrix(1 0 0 1 79.4424 193.8779)" font-family="'Helvetica'" font-size="10">3</text>
	</g>
	<g clip-path="url(#SVGID_2_)">
		<text transform="matrix(1 0 0 1 79.3594 99.5449)" font-family="'Helvetica'" font-size="10">4</text>
	</g>
	<g clip-path="url(#SVGID_2_)">
		<text transform="matrix(1 0 0 1 101.0264 33.9619)" font-family="'Helvetica'" font-size="10">5</text>
	</g>
	<g clip-path="url(#SVGID_2_)">
		<text transform="matrix(1 0 0 1 79.1924 142.5449)" font-family="'Helvetica'" font-size="10">6</text>
	</g>
	<g clip-path="url(#SVGID_2_)">
		<text transform="matrix(1 0 0 1 84.7764 210.7119)" font-family="'Helvetica'" font-size="10">7</text>
	</g>
	<g clip-path="url(#SVGID_2_)">
		<text transform="matrix(1 0 0 1 81.1094 283.2949)" font-family="'Helvetica'" font-size="10">8</text>
	</g>
	<g clip-path="url(#SVGID_2_)">
		<text transform="matrix(1 0 0 1 79.4424 273.1279)" font-family="'Helvetica'" font-size="10">9</text>
	</g>
	<g clip-path="url(#SVGID_2_)">
		<defs>
			<rect id="SVGID_19_" x="31.026" y="38.545" width="793.916" height="402.25"/>
		</defs>
		<clipPath id="SVGID_20_">
			<use xlink:href="#SVGID_19_"  overflow="visible"/>
		</clipPath>
		<g clip-path="url(#SVGID_20_)">
			<polyline fill="none" stroke="#0066B3" stroke-width="0.5" stroke-linejoin="round" stroke-miterlimit="10" points="
				79.192,147.128 84.776,215.295 79.442,198.378 81.109,287.878 79.442,277.628 			"/>
		</g>
	</g>
	<g clip-path="url(#SVGID_2_)">
		<text transform="matrix(1 0 0 1 146.9424 368.2949)" font-family="'Helvetica'" font-size="10">1</text>
	</g>
	<g clip-path="url(#SVGID_2_)">
		<text transform="matrix(1 0 0 1 122.0264 384.5449)" font-family="'Helvetica'" font-size="10">2</text>
	</g>
	<g clip-path="url(#SVGID_2_)">
		<text transform="matrix(1 0 0 1 79.7764 290.9619)" font-family="'Helvetica'" font-size="10">3</text>
	</g>
	<g clip-path="url(#SVGID_2_)">
		<text transform="matrix(1 0 0 1 94.1924 117.5449)" font-family="'Helvetica'" font-size="10">4</text>
	</g>
	<g clip-path="url(#SVGID_2_)">
		<text transform="matrix(1 0 0 1 89.7764 33.9619)" font-family="'Helvetica'" font-size="10">5</text>
	</g>
	<g clip-path="url(#SVGID_2_)">
		<text transform="matrix(1 0 0 1 107.6094 328.5449)" font-family="'Helvetica'" font-size="10">6</text>
	</g>
	<g clip-path="url(#SVGID_2_)">
		<text transform="matrix(1 0 0 1 79.6924 294.1279)" font-family="'Helvetica'" font-size="10">7</text>
	</g>
	<g clip-path="url(#SVGID_2_)">
		<text transform="matrix(1 0 0 1 118.3594 363.2949)" font-family="'Helvetica'" font-size="10">8</text>
	</g>
	<g clip-path="url(#SVGID_2_)">
		<text transform="matrix(1 0 0 1 107.9424 349.2119)" font-family="'Helvetica'" font-size="10">9</text>
	</g>
	<g clip-path="url(#SVGID_2_)">
		<defs>
			<rect id="SVGID_21_" x="31.026" y="38.545" width="793.916" height="402.25"/>
		</defs>
		<clipPath id="SVGID_22_">
			<use xlink:href="#SVGID_21_"  overflow="visible"/>
		</clipPath>
		<g clip-path="url(#SVGID_22_)">
			<polyline fill="none" stroke="#C6168D" stroke-width="0.5" stroke-linejoin="round" stroke-miterlimit="10" points="
				107.609,333.045 79.692,298.629 79.776,295.545 118.359,367.795 107.942,353.795 			"/>
		</g>
	</g>
</g>
</svg>
